<svg xmlns="http://www.w3.org/2000/svg" viewBox="0 0 32 32" fill="none">
  <rect width="32" height="32" rx="6" fill="#404040"/>
  <g stroke="#ffffff" stroke-width="1.8" stroke-linecap="round" stroke-linejoin="round" fill="none">
    <!-- pillar -->
    <line x1="16" y1="7" x2="16" y2="23"/>
    <!-- base -->
    <line x1="11" y1="25" x2="21" y2="25"/>
    <line x1="13" y1="23" x2="19" y2="23"/>
    <!-- beam -->
    <line x1="7" y1="10" x2="25" y2="10"/>
    <!-- top -->
    <circle cx="16" cy="7" r="1.5" fill="#ffffff" stroke="none"/>
    <!-- left pan -->
    <line x1="7" y1="10" x2="7" y2="12"/>
    <path d="M4 17 Q7 20 10 17" stroke="#ffffff" stroke-width="1.8" fill="none"/>
    <line x1="4" y1="17" x2="4" y2="12"/>
    <line x1="10" y1="17" x2="10" y2="12"/>
    <line x1="4" y1="12" x2="7" y2="12"/>
    <line x1="10" y1="12" x2="7" y2="12"/>
    <!-- right pan -->
    <line x1="25" y1="10" x2="25" y2="14"/>
    <path d="M22 19 Q25 22 28 19" stroke="#ffffff" stroke-width="1.8" fill="none"/>
    <line x1="22" y1="19" x2="22" y2="14"/>
    <line x1="28" y1="19" x2="28" y2="14"/>
    <line x1="22" y1="14" x2="25" y2="14"/>
    <line x1="28" y1="14" x2="25" y2="14"/>
  </g>
</svg>
